<svg width="163" height="58" viewBox="0 0 163 58" fill="none" xmlns="http://www.w3.org/2000/svg">
<path d="M156.071 21.6785C155.983 21.7015 155.874 21.7303 155.746 21.7647C155.369 21.8654 154.825 22.0127 154.154 22.1956C152.812 22.5615 150.964 23.0695 148.933 23.6314L141.548 25.6749L141.232 25.7624L141.231 25.4344L141.211 12.7188L141.192 0.252679H137.328H133.465V28.7238V57.1949H137.328H141.192L141.211 45.1346L141.231 32.8248L141.232 32.6389L141.41 32.5857L145.468 31.373C146.585 31.0393 147.607 30.7416 148.353 30.5308C148.726 30.4255 149.032 30.3415 149.247 30.2855C149.353 30.2577 149.44 30.2361 149.502 30.2222C149.533 30.2155 149.562 30.2096 149.586 30.2059C149.592 30.2048 149.601 30.2036 149.611 30.2025C149.618 30.2019 149.625 30.2014 149.632 30.2011C149.641 30.2007 149.659 30.2003 149.681 30.2033C149.692 30.2048 149.71 30.2079 149.732 30.2155C149.752 30.2224 149.79 30.2385 149.826 30.2748C149.827 30.2749 149.827 30.275 149.827 30.2751M156.071 21.6785L153.736 57.0707C152.911 51.4868 149.687 30.4892 149.65 30.452L149.827 30.2751M156.071 21.6785C156.077 21.7207 156.085 21.7677 156.094 21.8196C156.137 22.0833 156.2 22.4695 156.279 22.9607C156.438 23.9431 156.663 25.345 156.932 27.027C157.472 30.3908 158.188 34.8744 158.904 39.3611C159.619 43.8478 160.334 48.3376 160.87 51.7138C161.138 53.402 161.361 54.8116 161.517 55.8033C161.595 56.2992 161.656 56.6904 161.698 56.9596C161.71 57.0328 161.719 57.0969 161.728 57.1516C161.603 57.1609 161.419 57.1687 161.162 57.1748C160.542 57.1897 159.518 57.1949 157.9 57.1949H154.008M156.071 21.6785L154.008 57.1949M149.827 30.2751C149.85 30.3013 149.875 30.3429 149.881 30.3559C149.884 30.363 149.888 30.3745 149.889 30.3792C149.892 30.3878 149.894 30.3951 149.895 30.3984C149.896 30.4061 149.898 30.414 149.899 30.4203C149.901 30.4264 149.902 30.4334 149.903 30.4412C149.905 30.4505 149.907 30.461 149.909 30.4724C149.914 30.5005 149.92 30.5371 149.928 30.5815C149.931 30.604 149.935 30.6286 149.94 30.6551C149.966 30.8131 150.003 31.0438 150.049 31.3383C150.143 31.9273 150.275 32.7727 150.435 33.8032C150.756 35.8645 151.188 38.6673 151.645 41.6434C152.559 47.5953 153.571 54.2414 153.984 57.0341L154.008 57.1949M149.827 30.2751L154.008 57.1949M0.289166 18.4309L9.8021 21.9846L19.6507 25.6636L19.9867 25.7891L19.9882 25.4305L20.0086 20.5447C20.0142 19.2008 20.0153 17.9747 20.0125 17.082C20.0111 16.6357 20.0088 16.2722 20.0055 16.0186C20.0039 15.892 20.0021 15.7917 20 15.7218C19.9989 15.6872 19.9978 15.6579 19.9964 15.6358C19.9957 15.6254 19.9948 15.6127 19.9933 15.6006C19.9927 15.5952 19.9912 15.5842 19.9885 15.5715C19.9871 15.5655 19.9843 15.5532 19.9789 15.5384L19.9787 15.5376C19.9757 15.5295 19.9601 15.4856 19.9198 15.4454L19.9194 15.445C19.8967 15.4225 19.8742 15.4094 19.8714 15.4077L19.8712 15.4076C19.8684 15.4059 19.8658 15.4044 19.8634 15.4032C19.8601 15.4013 19.8575 15.3999 19.8558 15.3991C19.8498 15.396 19.8446 15.3937 19.842 15.3925C19.8361 15.3898 19.8298 15.3872 19.8245 15.385C19.8134 15.3803 19.7984 15.3743 19.7806 15.3673C19.7446 15.3531 19.6924 15.3328 19.6253 15.307C19.4908 15.2552 19.2942 15.1802 19.0423 15.0847C18.5383 14.8935 17.8121 14.6194 16.9177 14.2827C15.1287 13.6093 12.6662 12.6855 9.96193 11.6737L0.290115 8.05488L0.270485 4.11301L0.251845 0.36987C1.05112 0.677408 7.05664 2.9674 14.1711 5.67748L27.7546 10.8518V34.0622L27.7547 57.1949H23.8912H20.0277V45.5524V33.6599V33.4865L19.8654 33.4258L19.4501 33.2704L19.45 33.2703L9.62332 29.599C7.03543 28.6321 4.67589 27.7462 2.95915 27.0978C2.10073 26.7736 1.40331 26.5089 0.918499 26.3231C0.675993 26.2302 0.487233 26.1573 0.35829 26.1066C0.335642 26.0977 0.31496 26.0895 0.296253 26.0821C0.293954 26.0342 0.291716 25.9743 0.289578 25.903C0.283246 25.6919 0.278055 25.3889 0.274273 25.0158C0.266715 24.2702 0.264834 23.2493 0.270485 22.1335L0.0204885 22.1322L0.270485 22.1335L0.289166 18.4309ZM116.536 6.99566V0.252679H120.4H124.263V17.2392V33.8738L113.575 23.228L102.461 12.1574L102.035 11.7326V12.3345V34.8897V57.1949H98.1711H94.3076V28.7238V0.252679H98.1512H102.141L109.089 7.17279L116.11 14.1658L116.536 14.5905V13.9886V6.99566ZM161.901 57.1312C161.901 57.1313 161.901 57.1313 161.901 57.1313L161.901 57.1312ZM48.5501 11.3297L48.3736 11.1539L48.1972 11.3297L44.9151 14.5997L41.8093 17.694L39.1176 15.0137L36.4275 12.3348L42.4 6.3853C44.0912 4.70057 45.6331 3.16909 46.7547 2.05887C47.3156 1.50372 47.7712 1.05409 48.0879 0.743344C48.2227 0.611068 48.332 0.504236 48.4135 0.425252C48.4949 0.504229 48.6043 0.611051 48.7391 0.743316C49.0558 1.05403 49.5114 1.50363 50.0723 2.05873C51.1941 3.16886 52.736 4.70022 54.4273 6.38483L60.5779 12.511L60.7543 12.6867L60.9307 12.511L67.1009 6.36529L73.0947 0.39532L79.0885 6.36529L85.081 12.3339L82.3715 15.0328L79.6607 17.733L76.5541 14.6393L73.2711 11.3698L73.0946 11.1941L72.9182 11.3698L68.8048 15.4665L64.6914 19.5634L64.6178 19.6367V19.7405V38.5927V57.1949H60.7543H56.8908V38.5927V19.7405V19.6367L56.8172 19.5634L52.6837 15.4465L48.5501 11.3297Z" fill="#D0340C" stroke="#C6330E" stroke-width="0.5"/>
</svg>
