<svg width="250" height="254" viewBox="0 0 250 254" fill="none" xmlns="http://www.w3.org/2000/svg">
<path fill-rule="evenodd" clip-rule="evenodd" d="M189.455 238.015C183.097 241.104 177.007 243.77 175.922 243.943C174.837 244.115 170.649 245.582 166.615 247.203C158.3 250.545 145.704 252.599 137.166 252.003C133.991 251.782 127.15 251.716 121.966 251.859C116.782 252.001 109.29 251.366 105.317 250.449C101.345 249.532 97.007 249.021 95.6764 249.313C90.5789 250.432 77.3036 244.522 55.3941 231.377C52.8373 229.844 46.4855 224.278 41.2779 219.009C32.229 209.853 31.2305 208.427 18.7774 186.858C10.3409 172.245 5.75612 163.383 5.77429 161.722C5.79923 159.503 13.0494 149.566 15.1343 148.896C15.5404 148.766 16.7476 147.364 17.8166 145.783C19.3345 143.536 21.0872 142.477 25.8262 140.948C29.1631 139.87 31.9943 138.609 32.1194 138.146C32.2428 137.682 31.5748 137.748 30.6351 138.29C29.6943 138.833 28.7246 138.931 28.4795 138.509C27.7363 137.224 18.9216 142.131 16.4673 145.196C15.2024 146.778 11.8647 149.415 9.05161 151.058C4.96586 153.444 4.63456 153.823 7.40132 152.938C10.2743 152.019 10.6177 152.143 9.41408 153.657C8.6167 154.662 7.15128 155.952 6.16022 156.525C2.41656 158.686 4.2222 163.877 16.2662 185.572C25.2825 201.814 29.0176 207.637 33.5517 212.526C36.734 215.955 41.142 220.768 43.3475 223.221C51.0959 231.834 73.0168 244.946 86.4051 248.972C91.1594 250.402 95.5059 251.308 96.065 250.986C96.6242 250.663 101.207 251.248 106.251 252.287C111.295 253.325 118.92 253.966 123.198 253.711C127.476 253.456 134.501 253.42 138.811 253.63C152.758 254.313 176.92 246.945 193.452 236.967C200.597 232.655 200.375 232.714 189.455 238.015ZM214.304 221.467C217.387 218.559 219.596 216.096 219.21 215.992C218.825 215.888 215.945 218.184 212.812 221.092C209.678 223.999 205.604 227.496 203.759 228.861C200.461 231.303 200.474 231.306 204.552 229.049C206.832 227.786 211.22 224.374 214.304 221.467ZM225.823 208.202C228.03 205.055 230.433 202.135 231.162 201.713C231.892 201.292 233.593 197.681 234.943 193.688C236.293 189.696 239.188 181.799 241.374 176.14C243.562 170.482 245.201 165.548 245.018 165.175C244.832 164.802 245.74 159.885 247.033 154.249C251.194 136.116 250.869 127.962 244.924 101.433C241.155 84.613 237.594 75.3481 233.308 71.206C231.261 69.2292 231.766 70.6219 235.496 77.2446C239.503 84.3603 240.912 88.5249 243.623 101.279C248.561 124.501 248.934 135.267 245.415 153.068C241.878 170.97 242.156 169.923 238.56 178.966C237.026 182.824 234.879 188.593 233.791 191.786C232.703 194.978 229.095 201.524 225.775 206.333C222.454 211.141 220.204 214.816 220.774 214.5C221.344 214.184 223.616 211.351 225.823 208.202ZM182.172 231.937C181.432 230.77 181.049 230.667 181.194 231.674C181.325 232.586 181.873 233.45 182.41 233.594C182.948 233.738 182.84 232.992 182.172 231.937ZM223.431 198.963C223.303 198.741 219.516 195.835 215.014 192.504C207.329 186.818 206.889 186.654 207.79 189.814L208.748 193.181L204.876 190.764C202.745 189.435 201.329 188.96 201.729 189.707C202.129 190.453 204.043 192.082 205.982 193.325C209.176 195.371 209.534 195.349 209.78 193.088C210.017 190.891 210.719 191.113 215.635 194.942C220.237 198.524 224.426 200.685 223.431 198.963ZM228.485 188.828C228.158 188.301 224.806 185.959 221.034 183.623C216.211 180.637 213.433 179.674 211.676 180.38C210.303 180.933 208.857 180.845 208.464 180.183C208.045 179.479 207.71 179.853 207.655 181.087C207.583 182.736 208.232 182.954 210.652 182.093C213.022 181.25 215.154 181.916 219.822 184.965C226.014 189.007 229.576 190.596 228.485 188.828ZM230.671 177.149C232.721 173.748 233.85 167.236 232.709 165.383C232.164 164.499 230.3 162.747 228.567 161.491C225.423 159.213 225.422 159.217 228.491 163.299C231.046 166.696 231.412 168.08 230.652 171.459C230.147 173.696 228.706 176.943 227.447 178.672C225.723 181.043 225.667 181.528 227.216 180.641C228.348 179.995 229.902 178.423 230.671 177.149ZM239.426 157.957C238.234 157.516 236.798 157.422 236.234 157.748C235.662 158.078 236.166 158.694 237.374 159.141C238.565 159.582 240.001 159.676 240.566 159.351C241.138 159.02 240.634 158.404 239.426 157.957ZM243.042 150.004C242.702 149.416 239.206 148.288 235.271 147.498C230.597 146.56 228.517 145.624 229.268 144.8C232.643 141.1 232.497 140.956 228.074 143.625C222.863 146.771 222.538 148.234 227.085 148.088C228.67 148.036 233.047 148.688 236.812 149.535C240.578 150.381 243.382 150.592 243.042 150.004ZM224.517 158.196C224.191 157.631 222.729 156.666 221.269 156.048C219.808 155.432 218.879 155.388 219.205 155.952C219.531 156.516 220.992 157.484 222.453 158.1C223.914 158.718 224.842 158.76 224.517 158.196ZM241.956 136.319C241.538 135.619 238.366 133.337 234.906 131.248C227.692 126.889 227.706 126.441 235.23 120.745C238.021 118.633 240.322 116.323 240.342 115.61C240.391 113.984 239.215 114.744 231.834 121.115C228.57 123.931 226.178 126.659 226.519 127.176C227.327 128.402 241.756 138.145 242.298 137.831C242.527 137.699 242.373 137.018 241.956 136.319ZM240.802 128.227C238.797 125.696 238.77 124.965 240.611 123.181C243.486 120.397 242.414 118.808 239.412 121.402C236.488 123.927 236.765 126.135 240.366 128.985L243.148 131.185L240.802 128.227ZM242.663 109.182C242.27 108.439 239.91 106.509 237.42 104.893C233.11 102.098 232.736 102.09 229.657 104.731C225.386 108.395 222.149 112.423 223.241 112.716C223.722 112.844 226.068 110.889 228.455 108.37L232.795 103.791L238.088 107.161C240.999 109.016 243.058 109.925 242.663 109.182ZM236.409 95.8684C234.316 95.501 231.075 95.4859 229.208 95.8347C225.138 96.5948 224.606 95.9326 225.945 91.7776C226.921 88.7453 227.128 88.6187 231.14 88.6088C233.437 88.6025 235.404 88.2754 235.51 87.8805C235.821 86.7202 224.244 87.0568 219.415 88.3488C216.97 89.0024 215.186 89.9103 215.449 90.3658C215.713 90.8224 217.719 90.5656 219.908 89.7957C224.641 88.1317 225.192 88.7365 223.638 93.8878C222.508 97.6358 222.742 100.168 224.095 98.825C225.218 97.7105 230.695 96.9025 234.689 97.2625C239.876 97.7297 241.146 96.7013 236.409 95.8684ZM230.624 81.1095C230.496 80.8879 229.545 80.8404 228.511 81.0039C227.478 81.1684 226.89 81.7498 227.205 82.2956C227.521 82.8424 228.472 82.8899 229.318 82.4012C230.164 81.9125 230.752 81.3311 230.624 81.1095ZM218.786 84.2976C218.441 83.7005 217.861 83.7629 217.498 84.4375C217.135 85.1121 216.956 85.867 217.1 86.1163C217.244 86.3656 217.823 86.3022 218.387 85.9764C218.951 85.6507 219.13 84.8947 218.786 84.2976ZM221.943 77.59C217.825 78.0537 217.655 77.9414 218.255 75.1476C218.718 72.9978 219.951 71.7567 222.894 70.4787C226.444 68.9383 226.246 68.8992 221.165 70.1351C218.01 70.9019 214.38 71.3507 213.1 71.1325C211.046 70.7817 210.963 70.4142 212.386 68.0428C213.872 65.5663 213.837 65.4432 211.938 66.5146C210.803 67.1549 209.441 68.5269 208.911 69.5634C208.105 71.1382 208.695 71.5783 212.512 72.2462C216.658 72.9723 216.969 73.2387 215.904 75.1613C215.261 76.3261 215 77.7408 215.326 78.3061C215.897 79.2941 223.955 78.7754 225.505 77.6506C225.921 77.3507 224.317 77.3233 221.943 77.59ZM223.078 55.5086C213.05 39.0438 195.711 22.3963 183.989 17.9787C181.408 17.0063 175.344 14.1837 170.513 11.7064C160.404 6.52268 153.351 4.19995 146.275 3.7229C143.536 3.53864 137.727 3.07415 133.369 2.693C126.006 2.04692 125.321 2.20325 123.701 4.90167L121.957 7.80445L124.326 5.66135C125.837 4.29205 127.46 3.80139 128.815 4.30333C129.982 4.73483 132.545 4.9907 134.513 4.871C147.748 4.06385 159.855 7.84375 184.018 20.3239C197.555 27.315 210.997 40.1303 220.884 55.4662C225.214 62.1819 229.045 67.5115 229.398 67.3078C229.75 67.1046 226.906 61.7948 223.078 55.5086ZM216.012 59.3545C219.004 55.1444 217.093 56.1847 212.369 61.3373C209.711 64.2371 209.356 65.0264 211.17 63.9993C212.588 63.1972 214.767 61.1074 216.012 59.3545ZM213.476 57.3306C217.102 54.2523 217.081 54.2519 211.817 57.3304C208.886 59.0434 206.953 60.697 207.521 61.0026C208.09 61.3086 208.836 61.309 209.179 61.0039C209.523 60.6987 211.457 59.0462 213.476 57.3306ZM203.335 51.6128C206.504 45.7436 206.993 45.3475 208.125 47.7337C208.631 48.8025 209.94 49.2234 211.25 48.7377C212.632 48.2269 212.864 47.8484 211.85 47.7606C210.94 47.6815 209.42 46.6481 208.473 45.4656L206.751 43.3149L203.246 48.6985L199.74 54.0821L198.966 51.364C198.539 49.869 198.033 47.6574 197.841 46.4482C197.551 44.616 197.145 44.599 195.396 46.3472C194.241 47.5008 192.724 48.7834 192.023 49.1975C191.322 49.6132 191.044 50.4642 191.405 51.089C191.818 51.8051 192.916 51.3985 194.366 49.9953C196.345 48.0783 196.711 48.0871 196.962 50.057C197.476 54.0928 198.891 57.5628 199.804 57.0287C200.292 56.7431 201.88 54.3061 203.335 51.6128ZM190.719 41.3024C191.781 39.0615 193.21 36.2063 193.896 34.9582C194.582 33.7095 194.733 32.5652 194.231 32.4133C193.132 32.0844 186.242 44.5162 186.896 45.6478C187.608 46.882 188.626 45.7239 190.719 41.3024ZM3.72693 149.038C2.43432 144.356 1.34689 118.865 2.16017 112.325C3.69966 99.9507 7.99846 83.137 12.2133 73.0063C16.4182 62.8963 21.3578 55.0967 30.2789 44.4812C44.9777 26.9871 45.0101 26.9602 61.6739 18.3024C70.066 13.9428 78.7991 9.87744 81.0815 9.26968C83.3638 8.66191 89.9693 6.77561 95.7597 5.07677C104.153 2.61665 112.989 1.56826 117.936 2.44639C118.909 2.61941 117.927 14.4907 116.451 20.4085C113.249 33.2458 111.666 47.2628 113.367 47.7185C113.796 47.8334 114.243 45.198 114.36 41.861C114.593 35.2121 115.804 27.8035 118.648 15.6151C119.669 11.2377 120.285 6.88102 120.017 5.93268C119.749 4.98391 119.328 3.39678 119.08 2.40588C118.414 -0.256201 105.304 -0.0467585 97.1571 2.75846C93.3912 4.05449 87.6369 5.8159 84.369 6.67124C75.6213 8.96263 50.3785 21.2822 44.8821 25.9425C40.02 30.0642 25.2837 47.1641 18.2601 56.8345C8.48085 70.2969 -0.351466 103.444 0.0159424 125.305C0.256285 139.584 1.50138 149.204 3.36199 151.164C4.19494 152.042 4.33345 151.238 3.72693 149.038ZM180.856 34.3625C181.914 28.1912 182.951 27.2107 184.304 31.1021C185.179 33.6164 185.635 33.7429 188.195 32.1828C191.001 30.4736 191 30.4221 188.167 30.6325C185.944 30.7973 185.049 30.1838 184.451 28.0835C183.494 24.7277 181.477 25.5133 180.047 29.7984C179.321 31.9723 178.74 32.4902 177.869 31.74C176.335 30.4203 175.656 30.8618 172.145 35.4671C168.509 40.2354 169.944 40.9529 173.849 36.318C177.528 31.9515 179.237 32.412 178.054 37.4519C177.429 40.1167 177.589 41.1032 178.546 40.4837C179.326 39.9789 180.366 37.224 180.856 34.3625ZM40.5425 114.682C42.9026 111.68 48.3564 97.9645 46.8411 98.8393C46.2235 99.1959 44.9439 101.77 43.9989 104.559C43.0545 107.349 40.7744 111.7 38.9321 114.229C35.5934 118.811 36.9868 119.204 40.5425 114.682ZM165.199 30.619C164.58 28.6738 164.361 26.5501 164.711 25.9007C165.098 25.1806 165.704 25.9733 166.261 27.9291C166.909 30.1995 167.398 30.7279 167.933 29.7342C168.349 28.9619 168.166 27.4231 167.527 26.3161C166.862 25.164 167.173 23.1687 168.254 21.6528C171.384 17.2662 169.573 17.2703 165.652 21.6588C162.456 25.2357 162.17 26.264 163.396 29.7527C165.14 34.7088 166.741 35.4794 165.199 30.619ZM61.9022 87.4079C62.4329 86.3724 63.3289 85.2588 63.8931 84.933C64.4574 84.6072 64.4848 85.1878 63.9541 86.2233C63.4234 87.2588 62.5275 88.3724 61.9632 88.6982C61.399 89.024 61.3716 88.4434 61.9022 87.4079ZM54.2077 91.8504C54.2601 90.0883 52.9017 90.8726 51.6428 93.3312C50.8109 94.9537 50.9191 95.0773 52.4222 94.2286C53.3811 93.686 54.1846 92.6161 54.2077 91.8504ZM159.607 26.8138C159.262 26.2167 158.682 26.2791 158.32 26.9537C157.957 27.6283 157.777 28.3832 157.921 28.6325C158.065 28.8818 158.644 28.8184 159.208 28.4926C159.772 28.1668 159.951 27.4109 159.607 26.8138ZM157.207 21.9518C161.046 12.2034 160.077 10.4789 156.112 20.0044L153.35 26.6384L151.022 24.1032L148.694 21.5674L150.153 24.3751C150.955 25.9197 151.753 28.0744 151.926 29.1648C152.444 32.4317 153.816 30.5576 157.207 21.9518ZM110.513 48.3993C110.187 47.8351 109.459 47.64 108.894 47.9657C108.33 48.2915 108.135 49.0197 108.461 49.584C108.786 50.1483 109.515 50.3434 110.079 50.0176C110.643 49.6918 110.838 48.9636 110.513 48.3993ZM101.182 52.3981C100.517 52.0405 98.5391 52.5764 96.7848 53.5893C92.9098 55.8265 93.5962 56.1128 98.6317 54.3573C100.979 53.5397 101.936 52.804 101.182 52.3981ZM146.998 18.2623C147.939 13.5973 148.403 9.69769 148.029 9.59753C147.656 9.49737 146.336 13.2987 145.096 18.0432C143.856 22.7893 143.392 26.6873 144.065 26.708C144.737 26.7286 146.058 22.9283 146.998 18.2623ZM83.0047 59.9871C82.7246 59.5018 81.3406 59.7701 79.9299 60.5846C78.5192 61.3991 77.4675 62.2429 77.5919 62.4583C77.7169 62.6748 79.1009 62.4065 80.6673 61.8619C82.2338 61.3173 83.2855 60.4734 83.0047 59.9871ZM73.7742 64.1386C73.0996 63.7757 71.7713 63.9366 70.8219 64.4957C69.3354 65.3731 69.3883 65.5286 71.2094 65.6194C73.9681 65.7585 75.3264 64.9742 73.7742 64.1386ZM138.303 23.0844C137.634 21.9271 136.478 21.6839 135.188 22.4285C134.06 23.08 133.281 23.8645 133.459 24.1723C133.637 24.4801 135.038 24.7749 136.574 24.8282C138.976 24.9117 139.217 24.6684 138.303 23.0844ZM135.242 11.4924C135.073 10.4283 134.574 9.461 134.132 9.34262C133.689 9.22484 133.626 10.2121 133.989 11.5357C134.761 14.3502 135.689 14.3172 135.242 11.4924Z" fill="#C6330E"/>
</svg>
