<svg width="95" height="126" viewBox="0 0 95 126" fill="none" xmlns="http://www.w3.org/2000/svg">
<path fill-rule="evenodd" clip-rule="evenodd" d="M46.3945 0.0455504C46.1807 0.258989 46.0055 1.9331 46.0055 3.76482C46.0055 5.79118 45.6792 7.7257 45.1726 8.70314C44.5979 9.81313 44.4405 10.9758 44.6648 12.461C45.3948 17.296 45.3315 17.7422 43.9139 17.7422C42.6731 17.7422 42.6145 17.6096 42.7615 15.1329C42.9267 12.353 41.962 8.46204 41.2215 8.91867C40.9768 9.06948 40.7766 10.1497 40.7766 11.3187C40.7766 12.5727 40.3227 14.1774 39.6691 15.2326C38.7953 16.6437 38.6343 17.4787 38.9077 19.1841C39.6518 23.8286 42.7772 26.5704 47.3311 26.5741C53.7193 26.5798 57.9615 20.0133 54.855 14.9278C54.1648 13.798 53.8861 12.7073 54.0853 11.9162C54.2568 11.2341 54.1277 10.1727 53.7977 9.55794C53.2168 8.47404 53.1765 8.49231 52.4784 10.1492C52.08 11.0948 51.8165 13.1734 51.8886 14.8005C52.0084 17.5016 51.9226 17.7558 50.8402 17.9092C49.1941 18.1425 48.8506 16.8305 49.864 14.1826C51.3286 10.3548 50.7497 6.66999 48.2336 3.80396C47.8032 3.31341 47.3007 2.17994 47.1172 1.28444C46.9342 0.389454 46.6089 -0.167889 46.3945 0.0455504ZM40.2076 37.544C33.7211 39.3293 26.7854 44.8469 23.6528 50.7125C13.324 70.0525 29.2932 93.0867 50.9526 90.0912C61.6396 88.6128 70.7809 80.6211 73.4403 70.4314C77.1508 56.2139 68.4796 41.3139 54.3033 37.5482C50.8962 36.6428 43.4872 36.6407 40.2076 37.544ZM92.8434 82.0494C88.1358 90.9899 79.7788 98.9863 70.3202 103.601C61.8843 107.715 57.9234 108.551 47.0513 108.511C38.6081 108.48 37.5367 108.367 33.1951 107.041C19.285 102.794 8.44173 94.0631 1.52381 81.5401L0.00950013 78.7993L9.31763e-05 81.561C-0.0129792 85.4133 1.35073 91.6125 3.29277 96.5283C8.93691 110.815 22.3659 122.038 37.6559 125.248C42.4791 126.261 52.296 126.249 57.2656 125.224C68.3075 122.948 79.4421 115.666 86.0834 106.378C88.9342 102.391 92.1772 95.5431 93.3292 91.0791C94.181 87.7758 95.3036 79.0321 94.924 78.6532C94.8184 78.5478 93.8824 80.0763 92.8434 82.0494Z" fill="#C6330E"/>
</svg>
