<svg width="319" height="144" viewBox="0 0 319 144" fill="none" xmlns="http://www.w3.org/2000/svg">
<path fill-rule="evenodd" clip-rule="evenodd" d="M185.174 6.29355C192.72 11.6992 193.706 12.8062 196.482 18.9929C197.613 21.5139 197.762 21.6087 201.221 22.0272C203.771 22.3362 206.441 23.9244 208.462 26.334C209.153 27.1584 209.191 27.1529 210.03 26.0973C210.654 25.3126 211.442 24.9747 212.9 24.8673C214.169 24.7733 214.876 24.5163 214.817 24.1704C214.688 23.4091 215.987 21.8839 217.117 21.471C217.634 21.2818 218.063 20.6761 218.07 20.1253C218.095 18.1324 219.188 17.0942 221.265 17.0911C222.52 17.0895 224.021 16.6474 225.596 15.8169C229.783 13.6076 229.526 14.0221 230.292 8.25776C230.892 3.74616 231.896 1.24047 233.282 0.791933C234.711 0.329634 236.09 1.51407 236.427 3.49397C236.587 4.43311 237.034 5.6085 237.42 6.10539C238.115 7.0006 238.133 6.99556 239.218 5.59472C240.93 3.38501 242.751 2.53909 247.01 1.97549C250.557 1.5056 250.939 1.55057 251.235 2.47161C251.463 3.18143 251.048 4.05365 249.847 5.39022C248.552 6.83193 248.194 7.6412 248.376 8.71178C248.696 10.5886 249.463 10.6188 258.683 9.12346C267.163 7.74761 267.682 7.47109 269.695 3.2507C270.331 1.91636 271.214 0.763164 271.657 0.687632C272.548 0.535735 278.867 5.02225 280.215 6.76361C280.685 7.37085 281.617 9.33733 282.287 11.1338C282.958 12.9303 283.618 14.48 283.756 14.5772C284.155 14.8606 285.908 13.3912 288.422 10.6658C293.016 5.68502 297.016 3.42978 304.015 1.87462L309.1 0.744184L313.564 3.33808C316.019 4.76491 318.158 6.24913 318.318 6.63627C319.156 8.67318 313.683 12.9554 307.773 14.8876C303.534 16.2736 298.134 18.4698 295.756 19.7752C285.248 25.5434 279.243 27.6482 273.698 27.5053C271.644 27.4523 271.194 27.6381 269.002 29.4438C266.697 31.3427 266.275 31.5017 260.423 32.6807C256.874 33.3955 253.866 33.777 253.318 33.5823C252.538 33.3054 252.05 33.7456 250.61 36.0266C248.761 38.9529 246.642 40.9086 245.723 40.5363C245.423 40.4144 244.828 40.9595 244.4 41.7469C243.744 42.9549 243.23 43.2457 241.112 43.6068L238.601 44.0348L241.448 46.1008C243.245 47.4055 245.68 48.5527 248.054 49.2139C250.926 50.0135 251.937 50.5421 252.338 51.4522C252.814 52.5336 255.816 54.3912 260.763 56.666C263.211 57.7917 268.001 61.9093 268.197 63.0556C268.363 64.028 267.443 65.7677 266.696 65.895C266.479 65.932 265.509 65.7851 264.539 65.5688C260.328 64.6283 260.28 64.645 261.033 66.7991C261.872 69.1984 261.796 71.5786 260.863 72.1313C260.468 72.3661 258.793 72.0081 257.045 71.316C255.333 70.6375 253.832 70.0993 253.712 70.1198C253.591 70.1403 253.893 71.277 254.383 72.6452C255.356 75.3656 255.193 77.7204 253.981 78.4395C253.183 78.9129 249.654 77.1713 243.002 73.0207C240.526 71.4761 238.324 70.2401 238.106 70.2731C237.506 70.3648 230.639 67.0906 228.657 65.7682L226.912 64.6039L226.56 65.9351C226.153 67.4706 225.425 67.6952 222.811 67.091C220.433 66.542 220.526 66.504 220.767 67.9186C221.117 69.9679 220.345 71.8271 218.919 72.3745C218.041 72.7111 217.644 73.1876 217.745 73.7823C218.024 75.4138 215.626 78.6002 213.603 79.287C211.908 79.8631 211.775 80.044 212.016 81.4542C212.411 83.7747 211.448 85.3699 209.445 85.7114C208.021 85.9542 207.792 86.1681 207.953 87.1107C208.057 87.7229 207.871 88.7986 207.538 89.502C207.011 90.615 206.625 90.8026 204.543 90.9549C202.816 91.0808 202.113 91.3269 202.01 91.8392C201.797 92.9068 199.742 93.944 198.374 93.6744L197.188 93.4407L198.21 98.2609C199.041 102.18 199.114 103.267 198.601 104.073C197.84 105.27 197.128 109.124 197.387 110.644C197.545 111.57 198.456 111.964 203.22 113.161C214.307 115.948 215.125 116.237 217.262 118.124C221.177 121.581 225.258 126.452 225.33 127.755C225.437 129.684 223.775 129.885 221.626 128.205C219.611 126.629 216.652 126.226 211.455 126.821L208.497 127.16L208.994 130.19C209.409 132.718 209.271 134.006 208.164 137.953C207.434 140.557 206.607 142.888 206.328 143.134C205.226 144.105 203.982 142.987 203.17 140.297C202.584 138.356 201.718 136.948 199.987 135.117C196.106 131.013 196.202 131.01 193.379 135.33C192.029 137.394 190.362 140.003 189.675 141.128C188.596 142.895 188.277 143.121 187.322 142.802C186.389 142.49 186.135 141.961 185.688 139.398C184.619 133.275 182.298 129.857 177.991 128.062C171.984 125.558 169.568 122.329 169.789 117.104C169.953 113.237 169.858 113.005 168.363 113.633C167.654 113.932 166.028 115.608 164.752 117.359C161.941 121.215 161.099 121.118 160.134 116.829C159.607 114.485 159.379 114.108 158.57 114.246C158.011 114.341 156.915 115.663 155.9 117.467C154.953 119.149 153.883 120.651 153.524 120.805C152.531 121.228 151.163 120.224 151.257 119.143C151.307 118.575 151.02 118.118 150.556 118.025C149.449 117.804 145.163 119.64 143.17 121.19C142.249 121.907 140.901 122.525 140.175 122.564C139.09 122.622 138.781 122.358 138.433 121.073C137.826 118.839 136.665 118.645 130.887 119.813L125.888 120.823L123.332 119.368C121.926 118.567 120.047 117.891 119.156 117.865C117.905 117.83 117.302 117.446 116.515 116.184C115.847 115.115 114.329 113.965 112.123 112.86L108.751 111.17L108.109 108.305C107.51 105.631 107.276 105.29 104.601 103.207L101.735 100.975L101.067 97.0596C100.625 94.4655 99.8528 92.0498 98.7796 89.9036C96.8384 86.0209 96.6369 83.6271 97.9159 79.6293C98.7542 77.0095 98.748 76.6963 97.821 74.6761C97.2769 73.4897 96.4249 71.9002 95.9279 71.1437C92.9366 66.5892 92.2247 64.4357 92.7822 61.6259C93.1674 59.6862 93.0759 58.8516 92.2171 56.4471C91.2374 53.7053 91.158 51.3787 91.9852 49.6704C93.8045 45.9164 88.6558 38.1993 84.0153 37.7238C82.1546 37.5331 76.4678 38.2743 76.5401 38.6984C76.5603 38.8172 77.2097 39.6633 77.9831 40.5784C79.9368 42.8892 81.6423 50.8377 81.0525 54.8829C80.0595 61.6966 76.7517 66.9242 71.4792 70.0128C69.1569 71.3731 68.1407 71.6549 63.4093 72.2529C56.2906 73.1522 54.3011 72.7401 49.4104 69.3546C44.0197 65.623 42.9428 63.9265 41.8479 57.4447C41.0943 52.9829 41.0826 51.9501 41.7577 49.712C43.0661 45.3764 47.5894 39.8536 52.2505 36.8998L53.7063 35.9774L51.6575 35.7539C50.5306 35.6308 47.8967 35.8208 45.8037 36.1761C42.6393 36.7131 41.3207 37.226 37.9676 39.2246C25.7153 46.5271 18.8168 47.5297 6.98166 43.7276C1.02414 41.8132 0.357744 41.4014 0.488039 39.7123L0.580405 38.5144L8.0986 37.467C15.1797 36.4801 15.7322 36.3331 17.5935 34.9458C20.2279 32.9812 24.7251 31.843 27.4065 32.4624C29.9858 33.058 33.269 32.5018 35.4229 31.1033C36.7097 30.268 39.4645 29.5455 47.1246 28.0334C57.1308 26.0581 57.1496 26.0564 61.625 26.714L66.1066 27.3719L67.5117 26.1569C68.7476 25.0884 70.0601 24.7259 78.4135 23.149C88.5955 21.2262 93.8404 20.8711 97.7521 21.8394C99.8384 22.3562 101.929 23.4866 107.631 27.1792C108.643 27.8348 110.693 30.0217 112.185 32.0391C114.814 35.5939 114.944 35.9026 116.35 41.997C118.13 49.7091 118.966 52.0872 122.248 58.769C123.212 60.7321 123.955 63.2406 124.472 66.273C126.034 75.4308 128.502 81.5025 131.58 83.7579C133.385 85.0808 133.465 85.0878 137.896 84.3324L142.384 83.5674L141.335 81.6499C138.896 77.1913 137.503 66.252 139.062 63.8099C139.475 63.1638 139.974 62.1275 140.17 61.5067C140.497 60.4725 140.37 60.3784 138.659 60.387C137.632 60.3921 135.318 60.6448 133.517 60.9489C128.545 61.7879 125.548 60.7878 125.097 58.139C124.723 55.9451 125.678 54.3467 128.052 53.1922L130.126 52.1835L127.469 50.791C124.389 49.1767 122.191 46.4504 121.166 42.9751C119.928 38.7754 121.358 37.8211 125.759 39.9093C136.054 44.794 143.281 46.7293 151.664 46.8469C157.345 46.9263 158.448 47.8973 158.706 53.0484C159.13 61.4826 159.213 61.9219 160.413 62.0266C161.752 62.1433 161.784 61.9809 161.375 57.1642C160.952 52.1839 161.339 51.0479 163.827 49.9762C165.038 49.4539 166.161 48.5158 166.677 47.5932C167.267 46.5388 168.179 45.8447 169.652 45.3322C171.354 44.7392 171.943 44.217 172.619 42.7004C173.56 40.5906 175.16 39.3192 177.397 38.9036C178.395 38.7184 179.265 38.0707 180.026 36.9475C181.38 34.9456 183.606 33.297 185.357 32.9985C187.203 32.6838 186.804 31.9338 183.396 29.3132C181.726 28.0287 179.54 26.3443 178.538 25.5708C173.8 21.9094 170.449 20.0208 166.251 18.6442C161.412 17.0576 160.328 16.3252 160.625 14.8425C160.777 14.0841 161.18 13.9173 162.93 13.8875C164.097 13.868 166.266 13.7889 167.751 13.7128C170.266 13.5832 170.414 13.5141 169.927 12.7037C169.639 12.2254 168.815 10.5431 168.096 8.96499C166.412 5.2658 166.755 4.49171 170.356 3.87788C172.536 3.5063 173.124 3.61774 174.546 4.67213C176.766 6.31854 177.945 6.15173 176.463 4.401C175.162 2.86303 175.327 1.51192 176.844 1.29099C177.607 1.17998 180.253 2.76885 185.174 6.29355ZM171.333 8.11104C171.674 8.81312 172.478 10.4451 173.118 11.7373C174.411 14.3467 174.269 15.7815 172.69 16.0506C172.166 16.1399 171.759 16.3425 171.786 16.5008C171.813 16.6591 174.086 18.3806 176.837 20.3256C185.174 26.222 189.692 30.1211 189.952 31.6446C190.28 33.5707 188.995 35.2143 186.525 36.0265C184.883 36.5664 184.074 37.2303 182.945 38.9625C182.048 40.3393 181.047 41.2756 180.346 41.3952C178.002 41.7948 176.129 42.7849 176.052 43.6648C175.933 45.0382 172.887 48.1978 171.446 48.4434C170.614 48.5854 169.701 49.3579 168.843 50.6471C167.894 52.0735 167.102 52.7038 166.031 52.8864C164.35 53.173 164.304 53.3994 164.744 59.3102C165.07 63.7161 164.298 64.9721 161.15 65.1502C159.939 65.2189 158.418 64.9427 157.771 64.5361C156.65 63.8321 156.555 63.4797 155.77 57.0793C154.891 49.9066 154.824 49.7686 152.408 50.1805C150.692 50.4731 142.388 49.3037 138.229 48.1834C135.911 47.5594 132.005 46.1988 129.549 45.1608C127.094 44.1226 124.985 43.2905 124.862 43.3115C124.739 43.3324 124.974 43.9585 125.385 44.7031C125.796 45.4477 127.31 46.7688 128.75 47.6396C130.19 48.5104 131.937 49.5742 132.633 50.0043C134.053 50.8824 134.825 53.7024 133.931 54.7453C133.637 55.0882 132.331 55.6209 131.03 55.9297C129.691 56.2475 128.623 56.7696 128.568 57.1329C128.408 58.2001 130.982 58.3586 135.622 57.5676C141.337 56.5932 142.99 57.0843 143.487 59.9054C143.764 61.4798 143.351 63.0441 142.173 64.8826C141.43 66.0427 141.457 66.7967 142.468 72.8776C143.487 79.0138 143.713 79.7596 145.094 81.544C146.355 83.172 146.549 83.7137 146.26 84.8048C145.965 85.9195 146.079 86.1908 147.028 86.6404C148.444 87.3111 148.729 88.86 147.548 89.4691C146.433 90.0443 144.927 89.5776 143.38 88.1774C142.29 87.1916 141.911 87.1678 137.979 87.838C133.076 88.6738 131.58 88.3603 128.877 85.9304C125.512 82.9062 123.668 78.5267 121.249 67.8116C120.203 63.1829 119.038 59.4745 117.574 56.1189C116.395 53.4161 115.064 50.1357 114.617 48.8291C113.886 46.6901 113.693 46.4892 112.679 46.8123C111.27 47.2612 108.345 45.3866 108.086 43.8685C107.776 42.0527 109.223 41.7488 111.322 43.1876L113.218 44.4879L113.058 43.2853C112.469 38.8669 111.794 37.134 109.408 33.9083C107.5 31.3298 106.002 29.9651 103.061 28.1293C98.4158 25.2289 97.4216 24.8725 93.5079 24.703C89.1267 24.5131 88.5775 24.6414 89.4706 25.6456C90.3741 26.6612 90.1301 28.1137 89.0241 28.3023C87.885 28.4965 86.1632 27.3257 85.9764 26.2298C85.8336 25.3918 85.2829 25.4203 78.169 26.633L70.5152 27.9378L66.927 30.7217C64.9536 32.2528 62.619 33.9275 61.7392 34.443C60.8595 34.9591 58.4226 36.5873 56.3238 38.0619C46.3928 45.04 43.6763 49.4015 44.8811 56.4359C45.793 61.7617 46.7271 63.3875 50.4839 66.1868C55.063 69.5988 55.9311 69.7927 62.5849 68.8917C69.1784 67.999 70.8036 67.2619 73.7943 63.807C76.0552 61.196 77.0449 58.8833 77.7543 54.5552C78.5508 49.6939 76.9093 43.71 74.0469 41.0407C72.6793 39.7654 72.3464 39.6939 69.8127 40.1329C65.7162 40.8428 65.6067 41.1204 68.0932 44.4743C70.0248 47.08 70.2795 47.7214 70.8365 51.3841C71.9078 58.429 69.7959 61.6899 62.8735 63.6785C59.1778 64.7405 55.7309 64.0655 54.1518 61.9714C52.8501 60.2449 52.097 55.877 52.6719 53.3875C53.6925 48.9652 61.5241 39.9132 66.1895 37.7633C69.1347 36.4059 83.231 34.0606 85.401 34.5666C87.9142 35.1524 92.3735 38.7874 93.7961 41.409C95.3999 44.3647 95.96 48.0837 95.1609 50.4705C94.621 52.0831 94.6612 52.9914 95.3989 55.8504C95.9492 57.9841 96.218 60.3157 96.1065 61.9884C95.933 64.5975 96.0118 64.833 98.5027 69.1118C101.648 74.5149 102.235 77.192 101.053 80.7598C100.102 83.6317 100.399 86.3843 101.919 88.7833C102.569 89.8112 103.22 91.9942 103.681 94.6978L104.411 98.983L106.939 100.995C110.247 103.627 110.884 104.516 111.327 107.111C111.682 109.195 111.805 109.321 114.752 110.628C116.574 111.436 118.117 112.51 118.572 113.287C119.039 114.084 119.838 114.629 120.633 114.69C121.347 114.745 122.98 115.388 124.262 116.118L126.593 117.446L130.64 116.431C135.37 115.246 137.792 115.432 139.807 117.138L141.169 118.292L143.448 117.025C145.975 115.621 150.86 114.535 152.373 115.041C153.15 115.301 153.471 115.089 153.946 113.999C154.735 112.19 157.194 110.487 158.833 110.613C159.542 110.668 160.878 111.249 161.803 111.905L163.486 113.098L165.227 111.854C168.212 109.723 170.236 109.225 171.699 110.262C172.845 111.075 172.973 111.433 173.029 113.98C173.063 115.53 173.282 117.971 173.515 119.405C173.905 121.804 174.101 122.111 175.982 123.258C177.106 123.944 178.829 124.821 179.811 125.207C182.403 126.226 185.342 129.19 186.769 132.225C187.453 133.68 188.183 135.181 188.39 135.561C188.658 136.05 189.562 135.056 191.499 132.139C193.097 129.734 194.629 127.96 195.193 127.864C196.398 127.659 200.057 130.301 202.825 133.374C203.981 134.659 205.059 135.699 205.22 135.684C205.962 135.619 206.074 131.49 205.39 129.409C204.842 127.743 204.804 126.859 205.236 125.867C205.77 124.642 206.106 124.496 209.833 123.872C212.044 123.502 214.71 123.25 215.758 123.312C216.896 123.38 217.632 123.244 217.586 122.977C217.411 121.952 212.758 118.955 210.416 118.36C209.028 118.007 205.425 117.104 202.408 116.353C195.825 114.714 194.424 113.905 194.016 111.51C193.718 109.76 194.486 104.659 195.247 103.336C195.5 102.896 195.24 100.77 194.554 97.6714C193.242 91.7479 193.366 90.4497 195.267 90.1749C196.016 90.0669 197.098 90.076 197.671 90.196C198.554 90.3803 198.745 90.1311 198.917 88.5696C199.174 86.2319 200.196 85.8466 202.68 87.1492L204.637 88.1748L204.026 85.3898C203.264 81.9203 203.99 80.871 206.489 81.8257C207.355 82.1567 208.195 82.4047 208.355 82.3775C208.919 82.2813 208.209 79.8208 207.251 78.5501C205.529 76.2656 206.802 74.421 209.201 75.7246C210.758 76.5705 213.27 76.3227 213.883 75.2629C214.109 74.8714 214.176 73.446 214.032 72.0947L213.771 69.6377L215.654 69.3776L217.537 69.1179L216.741 66.3946C216.093 64.1784 216.075 63.5209 216.641 62.8601C217.184 62.227 217.538 62.1446 218.25 62.4849C219.595 63.1289 222.608 63.8572 223.381 63.7254C223.838 63.6476 223.95 62.9999 223.731 61.7158C223.242 58.8451 225.423 57.2258 226.716 59.4998C227.847 61.4898 231.041 63.6471 236.438 66.0687C239.641 67.5059 244.033 69.7807 246.197 71.1243C251.531 74.4352 251.741 74.4974 250.953 72.5385C250.602 71.6652 249.719 70.2272 248.992 69.344C247.874 67.9849 247.75 67.5993 248.188 66.8413C248.472 66.3483 248.987 65.897 249.332 65.8382C249.821 65.7549 254.302 66.8468 257.577 67.8467C258.605 68.1608 257.46 65.8957 255.871 64.472C253.924 62.7273 253.648 62.0936 254.384 61.055C255.087 60.0616 256.042 60.0257 259.154 60.8773C260.676 61.2936 261.892 61.455 261.854 61.2351C261.817 61.0157 259.994 59.9422 257.803 58.8499C252.639 56.2748 250.745 55.0465 249.989 53.7841C249.651 53.2192 249.052 52.8125 248.658 52.8797C247.34 53.1043 243.897 51.5352 239.885 48.8819C237.699 47.4363 234.967 45.6736 233.813 44.9646C232.659 44.2558 231.643 43.2489 231.554 42.7276C231.312 41.3081 232.886 40.2931 234.824 40.6194C235.7 40.7667 237.541 40.6957 238.915 40.4615C241.035 40.1 241.459 39.8569 241.713 38.8531C241.952 37.9119 242.356 37.6404 243.689 37.5227C245.159 37.3923 245.706 36.9114 248.123 33.6242C249.64 31.5614 251.019 29.85 251.188 29.8212C251.357 29.7924 252.341 29.9641 253.374 30.2028C256.391 30.8997 263.044 29.5645 265.746 27.7195C266.958 26.8925 267.928 26.095 267.903 25.9474C267.878 25.8004 266.88 25.5814 265.684 25.4619C264.488 25.3424 262.759 24.8196 261.841 24.3003C260.39 23.4792 260.127 23.0518 259.824 21.0202C259.335 17.7363 260.335 16.697 264.697 15.9533C266.521 15.6423 270.674 15.3889 273.924 15.391C277.175 15.3924 279.91 15.2878 280.002 15.1584C280.282 14.7621 278.279 9.69669 277.403 8.58653C276.95 8.01312 275.648 6.97794 274.511 6.28635C272.541 5.08958 272.426 5.07899 272.097 6.06385C271.907 6.63227 270.836 7.95777 269.717 9.00833C267.697 10.9054 267.635 10.9269 261.205 12.0231C254.952 13.0891 254.729 13.1643 254.752 14.2044C254.785 15.8036 252.944 17.4345 250.183 18.2486C248.062 18.8735 247.565 18.8482 246.449 18.057C245.241 17.2009 245.138 16.8791 244.78 12.8738C244.531 10.0848 244.627 7.99675 245.058 6.85629C245.421 5.89593 245.498 5.14717 245.23 5.19289C244.069 5.39076 241.737 7.29431 240.653 8.9282C239.019 11.3905 237.627 11.5001 235.85 9.30604C235.062 8.33408 234.265 7.56482 234.079 7.59663C233.662 7.66774 233.178 9.96268 233.121 12.1359C233.054 14.7637 231.816 16.44 228.911 17.8362C227.459 18.5343 226.032 19.3739 225.741 19.7021C225.449 20.0304 224.327 20.3072 223.241 20.3182C221.468 20.3365 221.275 20.4508 221.303 21.4647C221.324 22.1873 220.732 23.0243 219.655 23.7987C218.441 24.672 218.029 25.3169 218.167 26.128C218.449 27.7781 217.503 28.6564 215.805 28.3213C213.684 27.9039 212.317 28.296 211.576 29.5346C211.207 30.1505 210.548 30.7154 210.111 30.79C209.294 30.9291 205.953 28.6497 204.068 26.6671C203.346 25.9078 201.895 25.3863 199.516 25.031C195.182 24.3837 194.813 24.1815 194.059 22.0369C192.069 16.3843 189.578 12.8744 186.357 11.1845C185.055 10.5013 183.307 9.38145 182.471 8.69618C181.466 7.87104 180.869 7.66006 180.702 8.07218C180.061 9.65467 175.358 9.29688 173.062 7.49046C171.442 6.21645 170.564 6.53152 171.333 8.11104ZM37.1037 33.974C34.8539 35.1877 28.9976 36.0488 25.3551 35.7013C23.3622 35.5111 22.8914 35.6628 20.3522 37.316C18.3717 38.6055 16.3466 39.4324 13.4507 40.1352L9.35195 41.1302L11.4499 41.668C17.7255 43.2783 24.7972 42.5046 30.4443 39.59C32.3502 38.6064 35.3421 36.9514 37.0923 35.9124C40.0477 34.158 40.7205 33.9588 46.5055 33.1245C52.0938 32.3187 52.911 32.3146 54.4416 33.0895L56.1477 33.9531L58.9006 32.3822C60.4147 31.5181 61.733 30.6146 61.8303 30.3742C61.9276 30.1344 61.0247 29.8564 59.8244 29.7568C58.6241 29.6572 57.406 29.5184 57.1176 29.4489C55.8427 29.1418 39.0036 32.9492 37.1037 33.974ZM82.1526 28.6898C83.7376 29.4951 82.9462 31.0983 80.7821 31.4672C79.4363 31.6966 79.0612 31.5484 78.7826 30.6777C78.5289 29.8853 78.7532 29.4206 79.6427 28.8969C81.1228 28.0251 80.8823 28.0445 82.1526 28.6898ZM99.4449 26.3558C100.415 26.5676 100.583 28.5713 99.7549 30.0465C99.1313 31.1565 98.8993 31.2669 98.1275 30.8207C96.928 30.1277 96.6778 28.3561 97.6123 27.1675C98.4154 26.1462 98.4373 26.1364 99.4449 26.3558ZM102.005 35.4731C102.363 35.5518 102.758 36.2095 102.882 36.9356C103.164 38.5857 101.197 40.4994 99.7485 39.9849C98.46 39.5268 98.3983 38.4396 99.5674 36.7902C100.577 35.364 100.843 35.22 102.005 35.4731ZM57.7014 50.5656C56.8465 52.0383 55.9615 53.8148 55.7353 54.5136C55.1199 56.4121 55.7093 58.8197 57.0972 60.0755C58.1528 61.0309 58.6896 61.1249 60.8536 60.7319C66.1497 59.7692 68.0584 57.6195 67.751 52.9645C67.5558 50.015 66.527 47.5657 64.4898 45.2022L63.2773 43.7953L61.2665 45.8417C60.1604 46.9675 58.5562 49.0929 57.7014 50.5656ZM247.821 14.3047C247.942 15.0127 248.314 15.2264 249.169 15.0806C251.971 14.6029 252.665 13.1658 250.035 13.2852C249.144 13.3261 248.244 13.3518 248.035 13.3432C247.825 13.3346 247.73 13.7672 247.821 14.3047ZM262.958 20.5312C263.219 22.0587 266.358 22.7056 270.278 22.0394C272.422 21.6749 274.245 21.6096 274.63 21.8828C275.133 22.2391 275.725 21.947 277.083 20.6726C278.069 19.7484 278.753 18.9062 278.605 18.8007C277.968 18.35 270.584 18.574 266.871 19.1567C263.567 19.6758 262.855 19.9253 262.958 20.5312ZM204.558 36.799C205.885 36.789 207.333 36.9902 207.776 37.246C209.751 38.3876 208.349 40.31 205.752 40.0222C203.073 39.7246 201.462 40.1889 201.636 41.2077C201.864 42.548 200.489 43.9952 198.696 44.3008C197.324 44.5347 197.179 44.6963 197.602 45.5171C198.497 47.2526 197.469 48.0298 193.35 48.7321L189.544 49.3808L189.655 52.5046L189.765 55.6285L188.049 55.8782C187.106 56.0154 185.369 56.1128 184.191 56.0944L182.049 56.0608L182.336 57.7402C182.802 60.4761 182.038 61.4042 179.146 61.6157L176.675 61.7962L177.333 64.3594C177.878 66.4805 177.854 67.004 177.19 67.3972C176.75 67.6588 175.939 67.6876 175.387 67.4612C173.942 66.8679 173.854 66.9609 174.159 68.7522C174.503 70.7678 173.755 72.3529 172.473 72.3275C171.64 72.3111 171.393 71.8224 170.782 68.99C169.961 65.1822 170.469 63.1919 172.344 62.8723C173.312 62.7073 173.416 62.489 173.026 61.4457C172.425 59.837 173.149 59.2324 176.338 58.6793L178.901 58.2347L178.571 56.2973C178.146 53.8058 178.856 53.2865 183.153 52.9503L186.501 52.6877L186.24 51.1549C186.096 50.3115 186.336 48.9644 186.772 48.1614C187.433 46.943 187.956 46.6346 189.932 46.2978C193.024 45.7707 193.74 45.3137 193.232 44.1915C192.55 42.6816 193.56 41.6567 196.168 41.212C197.839 40.9272 198.518 40.6094 198.439 40.1486C198.127 38.3182 200.852 36.8265 204.558 36.799ZM105.079 54.8066C106.117 55.1752 106.869 58.4054 106.308 60.0839C105.878 61.3695 104.17 61.7185 103.548 60.6469C103.293 60.2062 102.636 59.6268 102.088 59.3587C100.764 58.711 100.685 57.8793 101.811 56.4543C103.048 54.8899 103.985 54.4174 105.079 54.8066ZM116.616 67.5566C117.093 67.9664 117.207 68.4578 116.981 69.1284C116.801 69.6645 116.596 70.5251 116.527 71.0402C116.344 72.3978 114.379 72.2838 113.222 70.8484C112.348 69.7664 112.33 69.5619 113.007 68.4966C113.865 67.1481 115.61 66.6932 116.616 67.5566ZM121.45 82.9461C122.138 83.4332 122.156 85.0301 121.478 85.4317C120.964 85.7371 120.97 85.9991 121.506 86.6016C122.402 87.6098 122.104 89.0359 120.956 89.2317C119.86 89.4184 117.014 87.397 116.827 86.299C116.544 84.6406 120.151 82.0251 121.45 82.9461ZM133.187 91.9233C133.411 92.3 133.516 92.9976 133.421 93.474C133.31 94.0247 133.796 94.7464 134.757 95.4591C135.587 96.0748 136.258 96.9982 136.248 97.5113C136.223 98.8235 134.485 99.2323 133.207 98.2273C132.572 97.7273 131.517 97.4848 130.62 97.633C128.323 98.0137 126.489 97.2688 126.248 95.8567C126.066 94.7895 126.253 94.614 127.861 94.3398C129.191 94.1131 129.836 93.6994 130.266 92.7985C130.934 91.3964 132.583 90.9021 133.187 91.9233ZM161.074 88.4937C162.154 88.8778 162.558 90.4608 161.758 91.1759C161.452 91.4493 160.914 92.3581 160.562 93.1954C160.121 94.2451 159.582 94.7276 158.828 94.7481C157.375 94.7881 156.965 93.3019 157.834 91.148C158.706 88.9844 159.84 88.0554 161.074 88.4937ZM147.151 94.2765C149.858 94.9895 151.375 96.4008 150.915 97.7786C150.485 99.0641 150.078 99.0938 147.705 98.0125L145.723 97.1099L144.75 98.7676C144.216 99.6799 143.381 100.493 142.897 100.576C141.651 100.788 141.028 99.4545 141.677 97.9651C141.98 97.2709 142.155 96.2791 142.067 95.7607C141.771 94.028 143.875 93.4134 147.151 94.2765ZM124.576 101.359C125.118 101.943 125.803 102.967 126.097 103.635L126.632 104.85L127.832 103.643C129.195 102.274 130.566 101.894 131.571 102.607C132.714 103.417 132.544 104.283 131.021 105.421C130.223 106.017 128.973 107.367 128.241 108.423C126.748 110.573 126.566 110.667 125.19 109.981C124.307 109.541 123.014 106.464 121.897 102.145C121.457 100.445 123.241 99.9224 124.576 101.359ZM162.93 100.781C163.953 101.506 163.916 102.219 162.778 103.723C162.214 104.469 161.816 105.454 161.894 105.912C161.972 106.369 161.731 107.099 161.357 107.535C160.772 108.217 160.502 108.168 159.392 107.177C158.588 106.458 157.632 106.109 156.841 106.244C155.37 106.495 154.052 105.559 154.28 104.425C154.393 103.857 155.17 103.512 157.064 103.189C159.069 102.847 159.86 102.475 160.407 101.613C161.228 100.323 161.948 100.085 162.93 100.781Z" fill="#C6330E"/>
</svg>
