<svg width="35" height="100" viewBox="0 0 35 100" fill="none" xmlns="http://www.w3.org/2000/svg">
<path d="M21.6709 96.2573C21.6628 96.2267 21.6541 96.1934 21.6447 96.1576C21.5834 95.9253 21.4937 95.5896 21.3822 95.1755C21.1593 94.3474 20.8498 93.2067 20.5075 91.9534L19.2624 87.395L19.1763 87.0796L19.5032 87.0791L27.2506 87.0667L34.7484 87.0548L34.7484 84.7655L34.7484 82.4766L17.4992 82.4766L0.25 82.4766L0.25 84.7655L0.25 87.0548L7.50058 87.0667L15.0007 87.0791L15.1873 87.0794L15.2401 87.2584L15.9789 89.7634C16.1823 90.4531 16.3638 91.0842 16.4924 91.5456C16.5567 91.7761 16.608 91.9653 16.6424 92.0988C16.6594 92.1651 16.6729 92.22 16.6817 92.26C16.686 92.2793 16.6901 92.2995 16.6928 92.3174C16.694 92.3253 16.6961 92.34 16.6967 92.3569C16.697 92.3645 16.6974 92.3816 16.6946 92.4026C16.6932 92.4132 16.6902 92.4312 16.6828 92.4525C16.6761 92.4717 16.6604 92.51 16.6245 92.5466C16.6244 92.5466 16.6244 92.5467 16.6243 92.5468M21.6709 96.2573L16.4463 92.3713L16.6243 92.5468M21.6709 96.2573C21.5109 96.2839 21.2823 96.3214 20.9944 96.3685C20.396 96.4665 19.5418 96.6055 18.5171 96.7719C16.4676 97.1047 13.7359 97.5469 11.0022 97.9886C8.26857 98.4303 5.53307 98.8714 3.47603 99.2022C2.44749 99.3675 1.58866 99.5053 0.984516 99.6017C0.682414 99.6499 0.444156 99.6877 0.28025 99.7135C0.276843 99.714 0.273467 99.7145 0.270126 99.7151C0.267173 99.6511 0.264522 99.5718 0.262222 99.4745C0.253204 99.0935 0.25 98.4624 0.25 97.4638L0.25 95.1431L0.265072 95.1409C1.96695 94.886 6.01651 94.261 9.64285 93.697C11.4562 93.415 13.1639 93.1482 14.4199 92.9504C15.0478 92.8515 15.563 92.7699 15.9221 92.7122C16.1015 92.6834 16.2423 92.6605 16.3389 92.6444C16.3633 92.6403 16.3851 92.6367 16.4041 92.6334C16.4225 92.6303 16.4383 92.6275 16.4513 92.6252C16.4643 92.6229 16.476 92.6207 16.4852 92.6189C16.487 92.6185 16.4891 92.6181 16.4916 92.6176C16.4948 92.6169 16.4985 92.616 16.5024 92.6151C16.5052 92.6144 16.5121 92.6127 16.5204 92.6101C16.525 92.6086 16.5365 92.6045 16.5436 92.6016C16.5566 92.5956 16.5981 92.5699 16.6243 92.5468M21.6709 96.2573L16.6243 92.5468M34.634 0.25185C34.319 1.08503 32.996 4.6001 31.4492 8.71402L28.3201 17.0358L14.2466 17.0358L0.250003 17.0359L0.250003 14.7468L0.250003 12.4578L7.24586 12.4578L14.4917 12.4578L14.6659 12.4578L14.7262 12.2944L14.8209 12.0381L14.8209 12.038L17.0578 5.97248C17.6469 4.37517 18.1866 2.91886 18.5816 1.85934C18.7791 1.32953 18.9404 0.899207 19.0535 0.600167C19.1053 0.463087 19.1469 0.354047 19.1771 0.275816C19.1907 0.275333 19.2053 0.274855 19.2208 0.274383C19.3485 0.270505 19.5323 0.267308 19.7594 0.264977C20.2131 0.260318 20.8345 0.259156 21.514 0.262643L21.5153 0.0126459L21.514 0.262643L23.6316 0.273466L21.5134 6.01784L19.2718 12.0969L19.1483 12.4319L19.5053 12.4334L22.4821 12.446C23.3011 12.4494 24.0484 12.4501 24.5926 12.4484C24.8646 12.4475 25.0865 12.4461 25.2415 12.4441C25.3188 12.4431 25.3806 12.4419 25.4241 12.4406C25.4454 12.4399 25.4646 12.4392 25.4797 12.4382C25.4867 12.4378 25.4967 12.4371 25.507 12.4358C25.5115 12.4352 25.5218 12.4339 25.5342 12.4312C25.54 12.4299 25.5522 12.427 25.567 12.4216L25.5677 12.4213C25.5759 12.4184 25.6198 12.4026 25.6598 12.3618L25.6602 12.3615C25.6824 12.3387 25.6954 12.3162 25.6969 12.3136L25.697 12.3133C25.701 12.3066 25.7039 12.301 25.7052 12.2983C25.7081 12.2926 25.7103 12.2878 25.7112 12.2857L25.7169 12.2723L25.7283 12.2437C25.7371 12.2211 25.7496 12.1885 25.7653 12.147C25.7969 12.0638 25.8427 11.9423 25.9009 11.7867C26.0175 11.4756 26.1845 11.0272 26.3896 10.4751C26.7999 9.37081 27.3628 7.85077 27.9793 6.18152L30.161 0.274416L32.4945 0.262643L34.634 0.25185ZM30.7377 72.0275L34.7484 72.0275L34.7484 74.3165L34.7484 76.6056L24.4965 76.6056L14.5911 76.6056L20.918 70.1706L27.6631 63.3103L28.0813 62.885L27.4849 62.885L13.7425 62.885L0.250001 62.885L0.250001 60.596L0.250001 58.3069L17.4992 58.3069L34.7484 58.3069L34.7484 60.5837L34.7484 63.0081L30.5594 67.2687L26.2987 71.6022L25.8806 72.0275L26.477 72.0275L30.7377 72.0275ZM0.0334582 99.7515C0.027553 99.7522 0.0287813 99.7519 0.0338854 99.7514L0.0334582 99.7515ZM28.1674 30.0338L28.3397 29.8585L28.1674 29.6833L26.175 27.6574L24.355 25.8067L25.9228 24.2117L27.4847 22.6227L31.0392 26.2377C32.0656 27.2816 32.9987 28.2332 33.675 28.9254C34.0132 29.2716 34.2871 29.5527 34.4762 29.748C34.5258 29.7992 34.5694 29.8443 34.6068 29.8832C34.5694 29.922 34.5258 29.9671 34.4763 30.0183C34.2871 30.2136 34.0133 30.4947 33.6751 30.8409C32.9988 31.5332 32.0659 32.4849 31.0395 33.5288L27.307 37.3252L27.1347 37.5005L27.307 37.6758L31.0514 41.4843L34.6235 45.1176L31.0514 48.7509L27.4852 52.3782L25.9112 50.7773L24.3312 49.1704L26.151 47.3193L28.143 45.2928L28.3153 45.1175L28.143 44.9423L25.6469 42.4033L23.1508 39.8643L23.0773 39.7895L22.9725 39.7895L11.4863 39.7895L0.250002 39.7895L0.250002 37.5005L0.250002 35.2115L11.4863 35.2115L22.9725 35.2115L23.0773 35.2115L23.1508 35.1367L25.6591 32.5853L28.1674 30.0338ZM34.7572 30.0414C34.7574 30.0416 34.7574 30.0416 34.7572 30.0413L34.7572 30.0414ZM34.7571 29.7249C34.7574 29.7247 34.7574 29.7247 34.7572 29.7249L34.7571 29.7249Z" fill="#D0340C" stroke="#C6330E" stroke-width="0.5"/>
</svg>
