<svg width="22" height="22" viewBox="0 0 22 22" fill="none" xmlns="http://www.w3.org/2000/svg">
<path d="M11 0.166504C13.9434 0.166504 14.3106 0.177337 15.4655 0.231504C16.6192 0.285671 17.4046 0.466587 18.0958 0.735254C18.8108 1.01042 19.4131 1.38309 20.0155 1.98434C20.5663 2.52589 20.9926 3.18097 21.2645 3.904C21.5321 4.59409 21.7141 5.38059 21.7683 6.53434C21.8192 7.68917 21.8333 8.05642 21.8333 10.9998C21.8333 13.9433 21.8225 14.3105 21.7683 15.4653C21.7141 16.6191 21.5321 17.4045 21.2645 18.0957C20.9934 18.8191 20.567 19.4743 20.0155 20.0153C19.4737 20.566 18.8187 20.9922 18.0958 21.2644C17.4057 21.532 16.6192 21.714 15.4655 21.7682C14.3106 21.8191 13.9434 21.8332 11 21.8332C8.05654 21.8332 7.68929 21.8223 6.53446 21.7682C5.38071 21.714 4.59529 21.532 3.90413 21.2644C3.18081 20.993 2.52561 20.5667 1.98446 20.0153C1.43348 19.4739 1.00722 18.8188 0.735376 18.0957C0.466709 17.4056 0.285793 16.6191 0.231626 15.4653C0.180709 14.3105 0.166626 13.9433 0.166626 10.9998C0.166626 8.05642 0.177459 7.68917 0.231626 6.53434C0.285793 5.3795 0.466709 4.59517 0.735376 3.904C1.00647 3.18053 1.43283 2.52527 1.98446 1.98434C2.52577 1.43317 3.18092 1.00688 3.90413 0.735254C4.59529 0.466587 5.37963 0.285671 6.53446 0.231504C7.68929 0.180587 8.05654 0.166504 11 0.166504ZM11 5.58317C9.56337 5.58317 8.18562 6.15385 7.1698 7.16967C6.15398 8.1855 5.58329 9.56325 5.58329 10.9998C5.58329 12.4364 6.15398 13.8142 7.1698 14.83C8.18562 15.8458 9.56337 16.4165 11 16.4165C12.4365 16.4165 13.8143 15.8458 14.8301 14.83C15.8459 13.8142 16.4166 12.4364 16.4166 10.9998C16.4166 9.56325 15.8459 8.1855 14.8301 7.16967C13.8143 6.15385 12.4365 5.58317 11 5.58317V5.58317ZM18.0416 5.31234C18.0416 4.95319 17.899 4.60875 17.645 4.3548C17.391 4.10084 17.0466 3.95817 16.6875 3.95817C16.3283 3.95817 15.9839 4.10084 15.7299 4.3548C15.476 4.60875 15.3333 4.95319 15.3333 5.31234C15.3333 5.67148 15.476 6.01592 15.7299 6.26988C15.9839 6.52383 16.3283 6.6665 16.6875 6.6665C17.0466 6.6665 17.391 6.52383 17.645 6.26988C17.899 6.01592 18.0416 5.67148 18.0416 5.31234ZM11 7.74984C11.8619 7.74984 12.6886 8.09225 13.2981 8.70174C13.9075 9.31123 14.25 10.1379 14.25 10.9998C14.25 11.8618 13.9075 12.6884 13.2981 13.2979C12.6886 13.9074 11.8619 14.2498 11 14.2498C10.138 14.2498 9.31135 13.9074 8.70186 13.2979C8.09237 12.6884 7.74996 11.8618 7.74996 10.9998C7.74996 10.1379 8.09237 9.31123 8.70186 8.70174C9.31135 8.09225 10.138 7.74984 11 7.74984V7.74984Z" fill="#3A3A3A"/>
</svg>
