<svg width="24" height="19" viewBox="0 0 24 19" fill="none" xmlns="http://www.w3.org/2000/svg">
<path d="M23.0088 3.1275C22.1818 3.49333 21.3047 3.73359 20.4067 3.84033C21.3532 3.27422 22.0617 2.38326 22.4 1.3335C21.5117 1.86216 20.5377 2.23266 19.5227 2.43308C18.8408 1.70354 17.9371 1.21971 16.9519 1.0568C15.9667 0.893888 14.9553 1.06103 14.0749 1.53224C13.1945 2.00345 12.4944 2.75232 12.0835 3.66244C11.6727 4.57256 11.574 5.59293 11.8028 6.56492C10.0014 6.47462 8.23902 6.00648 6.63022 5.19088C5.02142 4.37529 3.60213 3.23047 2.4645 1.83075C2.06181 2.5224 1.8502 3.30866 1.85133 4.109C1.85133 5.67983 2.65083 7.06758 3.86633 7.88008C3.14701 7.85744 2.44351 7.66318 1.8145 7.3135V7.36983C1.81471 8.41601 2.17673 9.42992 2.83916 10.2396C3.5016 11.0494 4.42368 11.6051 5.44908 11.8126C4.78133 11.9935 4.08116 12.0202 3.40158 11.8906C3.69069 12.7911 4.25417 13.5786 5.01314 14.143C5.7721 14.7073 6.68855 15.0201 7.63416 15.0377C6.69435 15.7758 5.61827 16.3214 4.46745 16.6434C3.31663 16.9653 2.11363 17.0573 0.927246 16.914C2.99825 18.2459 5.4091 18.953 7.87141 18.9507C16.2055 18.9507 20.7631 12.0466 20.7631 6.059C20.7631 5.864 20.7577 5.66683 20.749 5.474C21.6361 4.83285 22.4017 4.0386 23.0099 3.12858L23.0088 3.1275Z" fill="#3A3A3A"/>
</svg>
