<svg width="23" height="22" viewBox="0 0 23 22" fill="none" xmlns="http://www.w3.org/2000/svg">
<path d="M11.5 19.6665C13.8869 19.6665 16.1761 18.7534 17.864 17.1281C19.5518 15.5028 20.5 13.2984 20.5 10.9998C20.5 8.70129 19.5518 6.49689 17.864 4.87158C16.1761 3.24626 13.8869 2.33317 11.5 2.33317C9.11305 2.33317 6.82387 3.24626 5.13604 4.87158C3.44821 6.49689 2.5 8.70129 2.5 10.9998C2.5 13.2984 3.44821 15.5028 5.13604 17.1281C6.82387 18.7534 9.11305 19.6665 11.5 19.6665ZM11.5 21.8332C5.28663 21.8332 0.25 16.9831 0.25 10.9998C0.25 5.01659 5.28663 0.166504 11.5 0.166504C17.7134 0.166504 22.75 5.01659 22.75 10.9998C22.75 16.9831 17.7134 21.8332 11.5 21.8332ZM8.00125 12.2673L5.191 11.4234C4.5835 11.2447 4.58012 10.8417 5.32713 10.5524L16.2768 6.47909C16.9124 6.22992 17.2724 6.54517 17.0665 7.33492L15.2024 15.8066C15.0719 16.41 14.695 16.5541 14.1719 16.2757L11.302 14.2303L9.96438 15.474C9.82713 15.6018 9.71575 15.7113 9.50425 15.7383C9.29387 15.7665 9.12063 15.7058 8.9935 15.37L8.01475 12.2598L8.00125 12.2684V12.2673Z" fill="#3A3A3A"/>
</svg>
